<?xml version="1.0" encoding="UTF-8" standalone="no"?>
<!-- Created with Inkscape (http://www.inkscape.org/) -->

<svg
   xmlns:dc="http://purl.org/dc/elements/1.1/"
   xmlns:cc="http://creativecommons.org/ns#"
   xmlns:rdf="http://www.w3.org/1999/02/22-rdf-syntax-ns#"
   xmlns:svg="http://www.w3.org/2000/svg"
   xmlns="http://www.w3.org/2000/svg"
   xmlns:sodipodi="http://sodipodi.sourceforge.net/DTD/sodipodi-0.dtd"
   xmlns:inkscape="http://www.inkscape.org/namespaces/inkscape"
   width="226.63458mm"
   height="131.15775mm"
   viewBox="0 0 226.63458 131.15775"
   version="1.1"
   id="svg4660"
   inkscape:version="0.92.5 (2060ec1f9f, 2020-04-08)"
   sodipodi:docname="away_home.svg">
  <defs
     id="defs4654">
    <clipPath
       clipPathUnits="userSpaceOnUse"
       id="clipPath4550">
      <rect
         style="fill:#ce4040;fill-opacity:1;stroke-width:0.47508112"
         id="rect4552"
         width="119.81845"
         height="138.71725"
         x="-123.16259"
         y="95.23632"
         transform="scale(-1,1)" />
    </clipPath>
    <clipPath
       clipPathUnits="userSpaceOnUse"
       id="clipPath4550-1">
      <rect
         style="fill:#ce4040;fill-opacity:1;stroke-width:0.47508112"
         id="rect4552-2"
         width="119.81845"
         height="138.71725"
         x="-123.16259"
         y="95.23632"
         transform="scale(-1,1)" />
    </clipPath>
  </defs>
  <sodipodi:namedview
     id="base"
     pagecolor="#ffffff"
     bordercolor="#666666"
     borderopacity="1.0"
     inkscape:pageopacity="0.0"
     inkscape:pageshadow="2"
     inkscape:zoom="0.98994949"
     inkscape:cx="240.47953"
     inkscape:cy="169.69926"
     inkscape:document-units="mm"
     inkscape:current-layer="layer1"
     showgrid="false"
     inkscape:window-width="1920"
     inkscape:window-height="1029"
     inkscape:window-x="0"
     inkscape:window-y="27"
     inkscape:window-maximized="1" />
  <metadata
     id="metadata4657">
    <rdf:RDF>
      <cc:Work
         rdf:about="">
        <dc:format>image/svg+xml</dc:format>
        <dc:type
           rdf:resource="http://purl.org/dc/dcmitype/StillImage" />
        <dc:title></dc:title>
      </cc:Work>
    </rdf:RDF>
  </metadata>
  <g
     inkscape:label="Layer 1"
     inkscape:groupmode="layer"
     id="layer1"
     transform="translate(-0.75595071,-71.915174)">
    <circle
       transform="matrix(-1,0,0,1,237.16026,-24.568452)"
       style="opacity:1;vector-effect:none;fill:#404040;fill-opacity:1;stroke-width:0.26458332;stroke-linecap:butt;stroke-linejoin:miter;stroke-miterlimit:4;stroke-dasharray:none;stroke-dashoffset:0;stroke-opacity:1"
       id="path4540"
       cx="75.348602"
       cy="162.0625"
       r="65.578873"
       clip-path="url(#clipPath4550)"
       inkscape:export-xdpi="96"
       inkscape:export-ydpi="96" />
    <circle
       transform="translate(-9.0137789,-24.568453)"
       style="opacity:1;vector-effect:none;fill:#404040;fill-opacity:1;stroke-width:0.26458332;stroke-linecap:butt;stroke-linejoin:miter;stroke-miterlimit:4;stroke-dasharray:none;stroke-dashoffset:0;stroke-opacity:1"
       id="path4540-7"
       cx="75.348602"
       cy="162.0625"
       r="65.578873"
       clip-path="url(#clipPath4550-1)"
       inkscape:export-xdpi="96"
       inkscape:export-ydpi="96" />
    <path
       id="path4704"
       d="m 125.49091,162.16882 h 14.39361 v -51.04594 c 0,-3.60098 2.76692,-6.52853 6.1687,-6.52853 h 37.01344 c 3.40178,0 6.1687,2.92755 6.1687,6.52853 v 51.04594 h 14.39233 c 1.13607,0 2.05623,0.92016 2.05623,2.05623 v 4.11246 c 0,1.13606 -0.92016,2.05623 -2.05623,2.05623 h -78.13678 c -1.13608,0 -2.05623,-0.92017 -2.05623,-2.05623 v -4.11246 c 0,-1.13607 0.92015,-2.05623 2.05623,-2.05623 z m 26.73229,-20.56231 c 2.27085,0 4.11246,-1.84162 4.11246,-4.11246 0,-2.27085 -1.84161,-4.11247 -4.11246,-4.11247 -2.27085,0 -4.11247,1.84162 -4.11247,4.11247 -0.001,2.27084 1.84033,4.11246 4.11247,4.11246 z"
       inkscape:connector-curvature="0"
       style="fill:#ffffff;fill-opacity:1;stroke-width:0.12851445" />
    <path
       id="path4715"
       d="m 28.153851,162.16876 h 10.28116 v -42.99451 c 0,-3.50331 2.76692,-6.35504 6.1687,-6.35504 h 14.39362 v 8.22492 h -12.33739 v 49.34955 h -18.50609 c -1.13607,0 -2.05623,-0.92016 -2.05623,-2.05623 v -4.11246 c 0,-1.13607 0.92016,-2.05623 2.05623,-2.05623 z m 40.06568,-57.44468 24.67479,6.39231 c 1.83133,0.47422 3.11519,2.17832 3.11519,4.13431 v 46.91806 h 10.281159 c 1.13607,0 2.05624,0.92016 2.05624,2.05623 v 4.11246 c 0,1.13607 -0.92017,2.05623 -2.05624,2.05623 H 63.109801 v -61.53529 c 0,-2.77334 2.51374,-4.80772 5.10973,-4.13431 z m 6.19954,36.88237 c 1.70282,0 3.08435,-1.84162 3.08435,-4.11247 0,-2.27085 -1.38153,-4.11246 -3.08435,-4.11246 -1.70282,0 -3.08435,1.84161 -3.08435,4.11246 0,2.27085 1.38153,4.11247 3.08435,4.11247 z"
       inkscape:connector-curvature="0"
       style="fill:#ffffff;fill-opacity:1;stroke-width:0.12851445" />
  </g>
</svg>
