<?xml version="1.0" encoding="UTF-8" standalone="no"?>
<!-- Created with Inkscape (http://www.inkscape.org/) -->

<svg
   xmlns:dc="http://purl.org/dc/elements/1.1/"
   xmlns:cc="http://creativecommons.org/ns#"
   xmlns:rdf="http://www.w3.org/1999/02/22-rdf-syntax-ns#"
   xmlns:svg="http://www.w3.org/2000/svg"
   xmlns="http://www.w3.org/2000/svg"
   xmlns:sodipodi="http://sodipodi.sourceforge.net/DTD/sodipodi-0.dtd"
   xmlns:inkscape="http://www.inkscape.org/namespaces/inkscape"
   width="230.19974mm"
   height="134.72289mm"
   viewBox="0 0 230.19973 134.72289"
   version="1.1"
   id="svg8"
   inkscape:version="0.92.5 (2060ec1f9f, 2020-04-08)"
   sodipodi:docname="s2_day_night.svg"
   inkscape:export-filename="/home/craig/Documents/Coding Projects/OpenSHT/SmartHub/static/images/day_night.png"
   inkscape:export-xdpi="96"
   inkscape:export-ydpi="96">
  <defs
     id="defs2">
    <clipPath
       clipPathUnits="userSpaceOnUse"
       id="clipPath4550">
      <rect
         style="fill:#ce4040;fill-opacity:1;stroke-width:0.47508112"
         id="rect4552"
         width="119.81845"
         height="138.71725"
         x="-123.16259"
         y="95.23632"
         transform="scale(-1,1)" />
    </clipPath>
    <clipPath
       clipPathUnits="userSpaceOnUse"
       id="clipPath4550-5">
      <rect
         style="fill:#ce4040;fill-opacity:1;stroke-width:0.47508112"
         id="rect4552-3"
         width="119.81845"
         height="138.71725"
         x="-123.16259"
         y="95.23632"
         transform="scale(-1,1)" />
    </clipPath>
    <clipPath
       clipPathUnits="userSpaceOnUse"
       id="clipPath4550-6">
      <rect
         style="fill:#ce4040;fill-opacity:1;stroke-width:0.47508112"
         id="rect4552-2"
         width="119.81845"
         height="138.71725"
         x="-123.16259"
         y="95.23632"
         transform="scale(-1,1)" />
    </clipPath>
  </defs>
  <sodipodi:namedview
     id="base"
     pagecolor="#ffffff"
     bordercolor="#666666"
     borderopacity="1.0"
     inkscape:pageopacity="0.0"
     inkscape:pageshadow="2"
     inkscape:zoom="1.4142136"
     inkscape:cx="457.78887"
     inkscape:cy="286.49784"
     inkscape:document-units="mm"
     inkscape:current-layer="layer1"
     showgrid="false"
     inkscape:window-width="1920"
     inkscape:window-height="1029"
     inkscape:window-x="0"
     inkscape:window-y="27"
     inkscape:window-maximized="1" />
  <metadata
     id="metadata5">
    <rdf:RDF>
      <cc:Work
         rdf:about="">
        <dc:format>image/svg+xml</dc:format>
        <dc:type
           rdf:resource="http://purl.org/dc/dcmitype/StillImage" />
        <dc:title />
      </cc:Work>
    </rdf:RDF>
  </metadata>
  <g
     inkscape:label="Layer 1"
     inkscape:groupmode="layer"
     id="layer1"
     transform="translate(-8.2409608,-93.738912)">
    <path
       style="opacity:1;vector-effect:none;fill:#404040;fill-opacity:1;stroke:#ffffff;stroke-width:13.47401592;stroke-linecap:butt;stroke-linejoin:miter;stroke-miterlimit:4;stroke-dasharray:none;stroke-dashoffset:0;stroke-opacity:1"
       d="M 248.81641,-3.6367188 C 111.92867,-3.6367301 0.95898438,107.33298 0.95898438,244.2207 0.95899193,381.10843 111.92868,492.07812 248.81641,492.07812 c 71.1127,0 135.23839,-29.9382 180.4375,-77.91015 45.19857,47.9667 109.31166,77.91015 180.41992,77.91015 136.88772,0 247.85742,-110.96969 247.85742,-247.85742 0,-136.88772 -110.9697,-247.8574301 -247.85742,-247.8574188 C 538.55998,-3.636715 474.45895,26.325512 429.25977,74.298828 384.05994,26.318557 319.93613,-3.636715 248.81641,-3.6367188 Z"
       id="path4540-9"
       inkscape:connector-curvature="0"
       transform="matrix(0.26458333,0,0,0.26458333,9.7697296,96.483627)" />
    <path
       id="path21"
       d="m 72.81416,146.42101 c 8.61912,0 15.6415,7.02237 15.6415,15.64149 0,8.61911 -7.02238,15.64149 -15.6415,15.64149 -8.61911,0 -15.64149,-7.02238 -15.64149,-15.64149 0,-8.61912 7.02238,-15.64149 15.64149,-15.64149 z m -40.14649,13.11604 15.42968,-7.70669 -5.45824,-16.3584 c -0.73319,-2.21588 1.36863,-4.31771 3.56822,-3.56821 l 16.3584,5.45823 7.72298,-15.44598 c 1.04277,-2.08553 4.00814,-2.08553 5.0509,0 l 7.70669,15.42968 16.37471,-5.45823 c 2.21587,-0.7332 4.3177,1.36863 3.56821,3.56822 l -5.45823,16.35839 15.42969,7.72299 c 2.08553,1.04276 2.08553,4.00813 0,5.0509 l -15.42969,7.7067 5.45823,16.37468 c 0.7332,2.21588 -1.36863,4.31771 -3.56821,3.56822 L 83.0626,186.77932 75.35591,202.209 c -1.04277,2.08553 -4.00814,2.08553 -5.0509,0 l -7.70669,-15.42968 -16.3584,5.45823 c -2.21588,0.73319 -4.31771,-1.36863 -3.56822,-3.56822 l 5.45823,-16.3584 -15.42968,-7.70669 c -2.11811,-1.05906 -2.11811,-4.02443 -0.0326,-5.06719 z m 25.40113,17.27081 c 8.13032,8.13032 21.36041,8.13032 29.49073,0 8.13032,-8.13031 8.13032,-21.36041 0,-29.49073 -8.13032,-8.13032 -21.36041,-8.13032 -29.49073,0 -8.13032,8.13032 -8.13032,21.36042 0,29.49073 z"
       inkscape:connector-curvature="0"
       style="fill:#fffff3;fill-opacity:1;stroke-width:0.16293222"
       inkscape:export-xdpi="96"
       inkscape:export-ydpi="96" />
    <path
       id="path10"
       d="m 169.78718,203.86944 c -12.86547,0 -24.61566,-5.85334 -32.40023,-15.44468 -1.15159,-1.41881 0.10411,-3.49163 1.88382,-3.15273 20.23669,3.85399 38.82056,-11.66204 38.82056,-32.09016 0,-11.76729 -6.29927,-22.58811 -16.53729,-28.4144 -1.57815,-0.89808 -1.18125,-3.29074 0.61198,-3.62198 a 42.061932,42.061932 0 0 1 7.62116,-0.69735 c 23.02378,0 41.71064,18.65753 41.71064,41.71064 0,23.0238 -18.65754,41.71066 -41.71064,41.71066 z"
       inkscape:connector-curvature="0"
       style="fill:#ffffff;fill-opacity:1;stroke-width:0.16293222"
       inkscape:export-xdpi="96"
       inkscape:export-ydpi="96" />
  </g>
</svg>
