<?xml version="1.0" encoding="UTF-8" standalone="no"?>
<!-- Created with Inkscape (http://www.inkscape.org/) -->

<svg
   xmlns:dc="http://purl.org/dc/elements/1.1/"
   xmlns:cc="http://creativecommons.org/ns#"
   xmlns:rdf="http://www.w3.org/1999/02/22-rdf-syntax-ns#"
   xmlns:svg="http://www.w3.org/2000/svg"
   xmlns="http://www.w3.org/2000/svg"
   xmlns:sodipodi="http://sodipodi.sourceforge.net/DTD/sodipodi-0.dtd"
   xmlns:inkscape="http://www.inkscape.org/namespaces/inkscape"
   width="230.19974mm"
   height="134.72289mm"
   viewBox="0 0 230.19973 134.72289"
   version="1.1"
   id="svg8"
   sodipodi:docname="s2_night_day.svg"
   inkscape:export-filename="/home/craig/Documents/Coding Projects/OpenSHT/SmartHub/static/images/night_day.png"
   inkscape:export-xdpi="96"
   inkscape:export-ydpi="96"
   inkscape:version="0.92.5 (2060ec1f9f, 2020-04-08)">
  <defs
     id="defs2">
    <clipPath
       clipPathUnits="userSpaceOnUse"
       id="clipPath4550">
      <rect
         style="fill:#ce4040;fill-opacity:1;stroke-width:0.47508112"
         id="rect4552"
         width="119.81845"
         height="138.71725"
         x="-123.16259"
         y="95.23632"
         transform="scale(-1,1)" />
    </clipPath>
    <clipPath
       clipPathUnits="userSpaceOnUse"
       id="clipPath4550-5">
      <rect
         style="fill:#ce4040;fill-opacity:1;stroke-width:0.47508112"
         id="rect4552-3"
         width="119.81845"
         height="138.71725"
         x="-123.16259"
         y="95.23632"
         transform="scale(-1,1)" />
    </clipPath>
    <clipPath
       clipPathUnits="userSpaceOnUse"
       id="clipPath4550-6">
      <rect
         style="fill:#ce4040;fill-opacity:1;stroke-width:0.47508112"
         id="rect4552-2"
         width="119.81845"
         height="138.71725"
         x="-123.16259"
         y="95.23632"
         transform="scale(-1,1)" />
    </clipPath>
  </defs>
  <sodipodi:namedview
     id="base"
     pagecolor="#ffffff"
     bordercolor="#666666"
     borderopacity="1.0"
     inkscape:pageopacity="0.0"
     inkscape:pageshadow="2"
     inkscape:zoom="1.4"
     inkscape:cx="434.55997"
     inkscape:cy="276.56072"
     inkscape:document-units="mm"
     inkscape:current-layer="layer1"
     showgrid="false"
     inkscape:window-width="1920"
     inkscape:window-height="1029"
     inkscape:window-x="0"
     inkscape:window-y="27"
     inkscape:window-maximized="1" />
  <metadata
     id="metadata5">
    <rdf:RDF>
      <cc:Work
         rdf:about="">
        <dc:format>image/svg+xml</dc:format>
        <dc:type
           rdf:resource="http://purl.org/dc/dcmitype/StillImage" />
        <dc:title />
      </cc:Work>
    </rdf:RDF>
  </metadata>
  <g
     inkscape:label="Layer 1"
     inkscape:groupmode="layer"
     id="layer1"
     transform="translate(-7.9872296,-94.776575)">
    <path
       id="path10"
       d="m 79.782104,203.77315 c 12.865455,0 24.615646,-5.85334 32.400216,-15.44468 1.1516,-1.41881 -0.10411,-3.49163 -1.88382,-3.15273 -20.236676,3.85399 -38.820562,-11.66204 -38.820562,-32.09016 0,-11.76729 6.299285,-22.58811 16.537295,-28.4144 1.578161,-0.89808 1.181258,-3.29074 -0.611974,-3.62198 a 42.06193,42.06193 0 0 0 -7.621155,-0.69735 c -23.023789,0 -41.71065,18.65753 -41.71065,41.71064 0,23.0238 18.657533,41.71066 41.71065,41.71066 z"
       inkscape:connector-curvature="0"
       style="fill:#ffffff;fill-opacity:1;stroke-width:0.16293222"
       inkscape:export-xdpi="96"
       inkscape:export-ydpi="96" />
    <path
       style="opacity:1;vector-effect:none;fill:#404040;fill-opacity:1;stroke:#fffffe;stroke-width:13.47401619;stroke-linecap:butt;stroke-linejoin:miter;stroke-miterlimit:4;stroke-dasharray:none;stroke-dashoffset:0;stroke-opacity:1"
       d="M 247.85742,0.28515625 C 110.96978,0.28514491 0,111.25486 0,248.14258 0,385.0303 110.96978,496 247.85742,496 319.20511,496 383.07794,466.34564 428.30078,418.0957 473.49898,466.05813 537.61021,496 608.71484,496 745.60257,496 856.57227,385.0303 856.57227,248.14258 856.57227,111.25486 745.60257,0.28514491 608.71484,0.28515625 537.57408,0.28516003 473.43241,30.256579 428.23047,78.261719 382.98884,29.782134 319.399,0.28516003 247.85742,0.28515625 Z"
       transform="matrix(0.26458333,0,0,0.26458333,9.7697296,96.483627)"
       id="path4540-9"
       inkscape:connector-curvature="0" />
    <path
       id="path21"
       d="m 173.35988,146.42101 c -8.61912,0 -15.6415,7.02237 -15.6415,15.64149 0,8.61911 7.02238,15.64149 15.6415,15.64149 8.61911,0 15.64149,-7.02238 15.64149,-15.64149 0,-8.61912 -7.02238,-15.64149 -15.64149,-15.64149 z m 40.14649,13.11604 -15.42968,-7.70669 5.45824,-16.3584 c 0.73319,-2.21588 -1.36863,-4.31771 -3.56822,-3.56821 l -16.3584,5.45823 -7.72298,-15.44598 c -1.04277,-2.08553 -4.00814,-2.08553 -5.0509,0 l -7.70669,15.42968 -16.37471,-5.45823 c -2.21587,-0.7332 -4.3177,1.36863 -3.56821,3.56822 l 5.45823,16.35839 -15.42969,7.72299 c -2.08553,1.04276 -2.08553,4.00813 0,5.0509 l 15.42969,7.7067 -5.45823,16.37468 c -0.7332,2.21588 1.36863,4.31771 3.56821,3.56822 l 16.35841,-5.45823 7.70669,15.42968 c 1.04277,2.08553 4.00814,2.08553 5.0509,0 l 7.70669,-15.42968 16.3584,5.45823 c 2.21588,0.73319 4.31771,-1.36863 3.56822,-3.56822 l -5.45823,-16.3584 15.42968,-7.70669 c 2.11811,-1.05906 2.11811,-4.02443 0.0326,-5.06719 z m -25.40113,17.27081 c -8.13032,8.13032 -21.36041,8.13032 -29.49073,0 -8.13032,-8.13031 -8.13032,-21.36041 0,-29.49073 8.13032,-8.13032 21.36041,-8.13032 29.49073,0 8.13032,8.13032 8.13032,21.36042 0,29.49073 z"
       inkscape:connector-curvature="0"
       style="fill:#fffff3;fill-opacity:1;stroke-width:0.16293222"
       inkscape:export-xdpi="96"
       inkscape:export-ydpi="96" />
    <path
       id="path10-3"
       d="m 79.782104,203.77315 c 12.865457,0 24.615646,-5.85334 32.400216,-15.44468 1.1516,-1.41881 -0.10411,-3.49163 -1.88382,-3.15273 -20.236674,3.85399 -38.820561,-11.66204 -38.820561,-32.09016 0,-11.76729 6.299285,-22.58811 16.537295,-28.4144 1.57816,-0.89808 1.181259,-3.29074 -0.611973,-3.62198 a 42.061932,42.061932 0 0 0 -7.621157,-0.69735 c -23.023788,0 -41.710649,18.65753 -41.710649,41.71064 0,23.0238 18.657533,41.71066 41.710649,41.71066 z"
       inkscape:connector-curvature="0"
       style="fill:#ffffff;fill-opacity:1;stroke-width:0.16293222"
       inkscape:export-xdpi="96"
       inkscape:export-ydpi="96" />
  </g>
</svg>
