<?xml version="1.0" encoding="UTF-8" standalone="no"?>
<!-- Created with Inkscape (http://www.inkscape.org/) -->

<svg
   xmlns:dc="http://purl.org/dc/elements/1.1/"
   xmlns:cc="http://creativecommons.org/ns#"
   xmlns:rdf="http://www.w3.org/1999/02/22-rdf-syntax-ns#"
   xmlns:svg="http://www.w3.org/2000/svg"
   xmlns="http://www.w3.org/2000/svg"
   xmlns:xlink="http://www.w3.org/1999/xlink"
   xmlns:sodipodi="http://sodipodi.sourceforge.net/DTD/sodipodi-0.dtd"
   xmlns:inkscape="http://www.inkscape.org/namespaces/inkscape"
   width="74.004387mm"
   height="173.034mm"
   viewBox="0 0 74.004387 173.034"
   version="1.1"
   id="svg1271"
   inkscape:version="0.92.5 (2060ec1f9f, 2020-04-08)"
   sodipodi:docname="logo_2.svg">
  <defs
     id="defs1265">
    <linearGradient
       inkscape:collect="always"
       id="linearGradient2171">
      <stop
         style="stop-color:#007e9f;stop-opacity:1"
         offset="0"
         id="stop2167" />
      <stop
         style="stop-color:#cf184e;stop-opacity:1"
         offset="1"
         id="stop2169" />
    </linearGradient>
    <linearGradient
       inkscape:collect="always"
       xlink:href="#linearGradient2171"
       id="linearGradient2173"
       x1="159.42957"
       y1="218.83498"
       x2="159.42957"
       y2="143.96236"
       gradientUnits="userSpaceOnUse" />
    <linearGradient
       inkscape:collect="always"
       xlink:href="#linearGradient2171"
       id="linearGradient2235"
       x1="605.86273"
       y1="495.67175"
       x2="605.86273"
       y2="-150.04256"
       gradientUnits="userSpaceOnUse" />
  </defs>
  <sodipodi:namedview
     id="base"
     pagecolor="#ffffff"
     bordercolor="#666666"
     borderopacity="1.0"
     inkscape:pageopacity="0.0"
     inkscape:pageshadow="2"
     inkscape:zoom="0.7"
     inkscape:cx="180.68378"
     inkscape:cy="288.99134"
     inkscape:document-units="mm"
     inkscape:current-layer="layer1"
     showgrid="false"
     inkscape:pagecheckerboard="true"
     inkscape:showpageshadow="false"
     inkscape:window-width="1920"
     inkscape:window-height="1029"
     inkscape:window-x="0"
     inkscape:window-y="27"
     inkscape:window-maximized="1" />
  <metadata
     id="metadata1268">
    <rdf:RDF>
      <cc:Work
         rdf:about="">
        <dc:format>image/svg+xml</dc:format>
        <dc:type
           rdf:resource="http://purl.org/dc/dcmitype/StillImage" />
        <dc:title />
      </cc:Work>
    </rdf:RDF>
  </metadata>
  <g
     inkscape:label="Layer 1"
     inkscape:groupmode="layer"
     id="layer1"
     transform="translate(-122.50357,-76.584836)">
    <path
       style="opacity:1;vector-effect:none;fill:url(#linearGradient2235);fill-opacity:1;stroke:#000006;stroke-width:7.55905533;stroke-linecap:round;stroke-linejoin:bevel;stroke-miterlimit:4;stroke-dasharray:none;stroke-dashoffset:0;stroke-opacity:1;"
       d="m 578.06055,-148.9707 c -17.38059,0 -30.91797,13.72473 -30.91797,31.64453 v 354.75586 c -48.83539,21.9168 -80.2844,70.42913 -80.35742,123.95703 6.2e-4,75.15006 60.9222,136.07077 136.07226,136.07031 75.1493,-6.2e-4 136.06969,-60.92101 136.07031,-136.07031 -0.0504,-53.54797 -31.50214,-102.08787 -80.35546,-124.01367 v -355.20508 c 0,-16.9541 -13.72807,-31.13867 -31.26758,-31.13867 z m 6.56445,29.92187 h 36.61914 c 4.96594,0 9.07031,4.28995 9.07031,9.17188 v 434.46484 l 39.48243,-13.28125 16.87109,53.12305 -39.48242,12.5625 24.76562,33.38086 -44.14844,32.30468 -25.48437,-33.38085 -23.68945,33.38085 -44.86719,-32.30468 24.76562,-33.38086 -39.48242,-12.5625 16.8711,-53.12305 39.12304,13.28125 V -109.625 c 0,-5.55783 3.32727,-9.42383 9.58594,-9.42383 z"
       transform="matrix(0.26458333,0,0,0.26458333,0,117)"
       id="path2153"
       inkscape:connector-curvature="0" />
    <g
       aria-label="*"
       style="font-style:normal;font-weight:normal;font-size:10.58333302px;line-height:1.25;font-family:sans-serif;letter-spacing:0px;word-spacing:0px;fill:url(#linearGradient2173);fill-opacity:1;stroke:none;stroke-width:0.26458332;"
       id="text2162"
       transform="matrix(1.8694489,0,0,1.8694489,-138.68211,-183.80775)" />
  </g>
</svg>
