<?xml version="1.0" encoding="UTF-8" standalone="no"?>
<svg
   xmlns:dc="http://purl.org/dc/elements/1.1/"
   xmlns:cc="http://creativecommons.org/ns#"
   xmlns:rdf="http://www.w3.org/1999/02/22-rdf-syntax-ns#"
   xmlns:svg="http://www.w3.org/2000/svg"
   xmlns="http://www.w3.org/2000/svg"
   xmlns:xlink="http://www.w3.org/1999/xlink"
   xmlns:sodipodi="http://sodipodi.sourceforge.net/DTD/sodipodi-0.dtd"
   xmlns:inkscape="http://www.inkscape.org/namespaces/inkscape"
   inkscape:export-ydpi="24.000002"
   inkscape:export-xdpi="24.000002"
   inkscape:export-filename="/home/craig/Documents/Coding Projects/OpenSHT/Website_Resources/logo_light.png"
   inkscape:version="0.92.5 (2060ec1f9f, 2020-04-08)"
   sodipodi:docname="LOGO.svg"
   id="svg4431"
   version="1.1"
   viewBox="0 0 135.46667 135.46667"
   height="512"
   width="512">
  <defs
     id="defs4425">
    <linearGradient
       inkscape:collect="always"
       id="linearGradient5070">
      <stop
         style="stop-color:#e91e63;stop-opacity:1"
         offset="0"
         id="stop5066" />
      <stop
         style="stop-color:#00c6e1;stop-opacity:1"
         offset="1"
         id="stop5068" />
    </linearGradient>
    <filter
       id="filter5298"
       inkscape:label="Drop Shadow"
       style="color-interpolation-filters:sRGB;">
      <feFlood
         id="feFlood5288"
         result="flood"
         flood-color="rgb(0,0,0)"
         flood-opacity="0.498039" />
      <feComposite
         id="feComposite5290"
         result="composite1"
         operator="out"
         in2="SourceGraphic"
         in="flood" />
      <feGaussianBlur
         id="feGaussianBlur5292"
         result="blur"
         stdDeviation="3"
         in="composite1" />
      <feOffset
         id="feOffset5294"
         result="offset"
         dy="0"
         dx="4.52416e-15" />
      <feComposite
         id="feComposite5296"
         result="composite2"
         operator="atop"
         in2="SourceGraphic"
         in="offset" />
    </filter>
    <filter
       style="color-interpolation-filters:sRGB;"
       inkscape:label="Drop Shadow"
       id="filter5064">
      <feFlood
         flood-opacity="0.619608"
         flood-color="rgb(0,0,0)"
         result="flood"
         id="feFlood5054" />
      <feComposite
         in="flood"
         in2="SourceGraphic"
         operator="out"
         result="composite1"
         id="feComposite5056" />
      <feGaussianBlur
         in="composite1"
         stdDeviation="3.6"
         result="blur"
         id="feGaussianBlur5058" />
      <feOffset
         dx="4.63518e-15"
         dy="4.57967e-15"
         result="offset"
         id="feOffset5060" />
      <feComposite
         in="offset"
         in2="SourceGraphic"
         operator="atop"
         result="composite2"
         id="feComposite5062" />
    </filter>
    <linearGradient
       inkscape:collect="always"
       xlink:href="#linearGradient5070"
       id="linearGradient5072"
       x1="140.97554"
       y1="100.51214"
       x2="141.33653"
       y2="170.55246"
       gradientUnits="userSpaceOnUse" />
  </defs>
  <sodipodi:namedview
     width="512px"
     units="px"
     fit-margin-bottom="0.5"
     fit-margin-right="0.5"
     fit-margin-left="0.5"
     fit-margin-top="0.5"
     inkscape:pagecheckerboard="true"
     inkscape:window-maximized="1"
     inkscape:window-y="27"
     inkscape:window-x="0"
     inkscape:window-height="1029"
     inkscape:window-width="1920"
     showgrid="false"
     inkscape:document-rotation="0"
     inkscape:current-layer="layer1"
     inkscape:document-units="mm"
     inkscape:cy="344.7152"
     inkscape:cx="391.9627"
     inkscape:zoom="1.4142136"
     inkscape:pageshadow="2"
     inkscape:pageopacity="0.0"
     borderopacity="1.0"
     bordercolor="#666666"
     pagecolor="#ffffff"
     id="base" />
  <metadata
     id="metadata4428">
    <rdf:RDF>
      <cc:Work
         rdf:about="">
        <dc:format>image/svg+xml</dc:format>
        <dc:type
           rdf:resource="http://purl.org/dc/dcmitype/StillImage" />
        <dc:title />
      </cc:Work>
    </rdf:RDF>
  </metadata>
  <g
     transform="translate(-46.326255,-94.807214)"
     id="layer1"
     inkscape:groupmode="layer"
     inkscape:label="Layer 1">
    <path
       style="opacity:1;vector-effect:none;fill:#fafafa;fill-opacity:1;stroke:#000000;stroke-width:1.94852924;stroke-linecap:butt;stroke-linejoin:miter;stroke-miterlimit:4;stroke-dasharray:none;stroke-dashoffset:0;stroke-opacity:1;"
       d="m 136.25113,105.82773 c -1.66371,0 -2.89253,1.34473 -2.89253,3.05201 v 13.91956 l -10.37131,-9.16843 c -5.8636,-6.11338 -12.68527,-5.98954 -18.27389,-0.1018 l -53.234877,47.06017 c -1.365262,1.18353 -1.565613,3.20249 -0.419385,4.64158 l 3.254523,4.08709 c 1.26122,1.32873 2.982685,1.33291 4.146757,0.30386 L 111.95331,122.3337 c 0.97922,-0.89244 2.62914,-0.92829 3.75631,0.0682 17.79322,15.72943 35.58635,31.45891 53.37956,47.18833 1.26482,1.11605 3.11344,1.06966 4.27773,-0.39222 l 3.28591,-4.12533 c 1.11799,-1.40094 0.84466,-3.25351 -0.4081,-4.36097 l -30.8103,-27.2371 V 108.8632 c 0,-1.56447 -1.14855,-3.03547 -2.95433,-3.03547 z"
       id="path4835"
       inkscape:connector-curvature="0" />
    <path
       style="opacity:1;vector-effect:none;fill:none;fill-opacity:1;stroke:none;stroke-width:1.94852924;stroke-linecap:butt;stroke-linejoin:miter;stroke-miterlimit:4;stroke-dasharray:none;stroke-dashoffset:0;stroke-opacity:1;"
       d="m 133.42138,138.05935 v 11.1678 c -5.89377,2.56249 -9.71461,8.61414 -9.7204,15.33136 -7e-5,9.16891 7.05502,16.60188 15.75807,16.60209 8.70324,7e-5 15.75863,-7.43297 15.75856,-16.60209 -0.001,-3.7431 -1.19468,-7.27935 -3.27022,-10.12186 -1.72865,-1.52815 -3.45749,-3.05607 -5.18614,-4.58422 l -1.26404,-1.11776 c -4.0248,-3.55903 -8.05053,-7.1169 -12.07583,-10.67532 z"
       id="path4690-2"
       inkscape:connector-curvature="0" />
    <g
       aria-label="*"
       style="font-style:normal;font-weight:normal;font-size:10.58333302px;line-height:1.25;font-family:sans-serif;letter-spacing:0px;word-spacing:0px;fill:url(#linearGradient5072);fill-opacity:1;stroke:none;stroke-width:0.26458332;stroke-opacity:1;"
       id="text4701-7"
       transform="matrix(0.94919148,0,0,1,5.2314983,0.52916719)">
      <path
         style="font-style:normal;font-variant:normal;font-weight:900;font-stretch:normal;font-size:50.79999924px;font-family:Orbitron;-inkscape-font-specification:'Orbitron Heavy';fill:url(#linearGradient5072);fill-opacity:1;stroke:#fdffff;stroke-width:3.87936467;stroke-miterlimit:4;stroke-dasharray:none;stroke-opacity:1;"
         d="m 343.1543,203.05078 v 39.91992 l -20.92774,-7.10547 -9.02539,28.41602 21.1211,6.7207 -13.24805,17.85547 24,17.28125 12.67187,-17.85742 13.63282,17.85742 23.61523,-17.28125 -13.24805,-17.85547 21.11914,-6.7207 -9.02343,-28.41602 -21.11914,7.10547 v -15.10742 z"
         transform="matrix(0.26458333,0,0,0.26458333,46.682874,94.278047)"
         id="path4814"
         inkscape:connector-curvature="0" />
      <path
         style="font-style:normal;font-variant:normal;font-weight:900;font-stretch:normal;font-size:50.79999924px;font-family:Orbitron;-inkscape-font-specification:'Orbitron Heavy';fill:url(#linearGradient5072);fill-opacity:1;stroke:none;stroke-width:0.99999994;stroke-opacity:1;"
         d="m 372.72211,138.50548 -10e-6,57.46466"
         id="path4812"
         transform="matrix(0.26458333,0,0,0.26458333,46.682874,94.278047)"
         inkscape:connector-curvature="0" />
      <path
         style="font-style:normal;font-variant:normal;font-weight:900;font-stretch:normal;font-size:50.79999924px;font-family:Orbitron;-inkscape-font-specification:'Orbitron Heavy';fill:url(#linearGradient5072);fill-opacity:1;stroke:none;stroke-width:0.99999994;stroke-opacity:1;"
         d="M 343.1541,113.69466 V 59.868522 c 0,-4.954091 3.72952,-9.170532 9.33865,-9.170532 h 11.1369 c 5.23196,0 9.09245,4.511698 9.09245,9.258898 l 10e-6,78.548592 c -9.856,-8.27027 -19.71201,-16.54055 -29.56801,-24.81082 z"
         id="path4810"
         transform="matrix(0.26458333,0,0,0.26458333,46.682874,94.278047)"
         inkscape:connector-curvature="0"
         sodipodi:nodetypes="csssscc" />
      <path
         style="font-style:normal;font-variant:normal;font-weight:900;font-stretch:normal;font-size:50.79999924px;font-family:Orbitron;-inkscape-font-specification:'Orbitron Heavy';fill:url(#linearGradient5072);fill-opacity:1;stroke:none;stroke-width:0.99999994;stroke-opacity:1;"
         d="m 343.15409,171.15948 1e-5,-57.46482"
         id="path4703-0"
         transform="matrix(0.26458333,0,0,0.26458333,46.682874,94.278047)"
         inkscape:connector-curvature="0" />
    </g>
    <g
       transform="matrix(0.94919148,0,0,1,-138.61841,-2.3703311)"
       style="fill:#333333;fill-opacity:1;stroke:none;stroke-width:2;stroke-miterlimit:4;stroke-dasharray:none;stroke-opacity:1;"
       id="g5032" />
    <path
       style="opacity:1;vector-effect:none;fill:#fafafa;fill-opacity:1;stroke:#000000;stroke-width:1.72834539;stroke-linecap:round;stroke-linejoin:round;stroke-miterlimit:4;stroke-dasharray:none;stroke-dashoffset:0;stroke-opacity:1;paint-order:normal;"
       d="m 113.8398,130.08465 c -0.6677,-0.01 -1.31468,0.23425 -1.84529,0.70331 l -39.422169,34.84956 v 46.654 c 0,1.7218 1.291462,3.14554 2.992592,3.14554 h 26.148027 c 1.75551,0 2.9509,-1.45671 2.9509,-3.15588 v -19.70474 c 0,-1.69624 1.25833,-3.12539 2.88174,-3.12539 h 12.49864 c 1.70139,0.003 2.96071,1.55741 2.96071,3.07991 v 19.7528 c -0.002,1.816 1.28435,3.1533 3.0647,3.1533 h 26.06413 c 1.71692,0 2.96267,-1.42902 2.96267,-3.12384 v -45.72744 c -0.9496,8.2122 -7.58602,14.57489 -15.6374,14.57482 -8.70305,-2e-4 -15.75814,-7.43318 -15.75807,-16.60209 0.006,-6.71723 3.82663,-12.76887 9.7204,-15.33136 v -2.75074 l -17.61121,-15.56856 c -0.61421,-0.54927 -1.30266,-0.81326 -1.97037,-0.8232 z"
       id="rect829"
       inkscape:connector-curvature="0" />
  </g>
</svg>
